v -10.35000038 15.51570797 2.109222889
vn -0.9883959293 0.001215263153 -0.1518946737
v -13.35000038 15.51570797 2.109222889
vn -0.0887337327 0.007968881167 -0.9960234761
v -10.35000038 15.64511681 2.126259804
vn -0.6763379574 0.1592662483 -0.7191670537
v -13.35000038 15.64511681 2.126259804
vn -0.003782305866 0.3009138107 -0.9536438584
v -10.35000038 15.76570797 2.176208973
vn -0.7400215864 0.3104311824 -0.5966578126
v -13.35000038 15.76570797 2.176208973
vn -0.01487028599 0.5374307036 -0.8431767821
v -10.35000038 15.86926079 2.255668879
vn -0.9985020161 0.0369557552 -0.0403479822
v -13.35000038 15.86926079 2.255668879
vn -0.03249515593 0.7370371222 -0.6750705838
v -10.35000038 15.94872093 2.359222174
vn -0.579171896 0.6874383688 -0.4381648302
v -13.35000038 15.94872093 2.359222174
vn -0.05541676283 0.8857504129 -0.4608418047
v -10.35000038 15.99867153 2.479813337
vn -0.6570435762 0.7189118862 -0.2268467993
v -13.35000038 15.99867153 2.479813337
vn -0.08199744672 0.9730566144 -0.2154929489
v -10.35000038 16.01570892 2.609222412
vn -0.5844249725 0.8111506701 -0.02195637673
v -13.35000038 16.01570892 2.609222412
vn -0.9467823505 0.3217567205 -0.00870937109
v -13.35000038 16.01570892 3.109222174
vn -0.7317684293 0.6813037992 0.01844152622
v -10.35000038 16.01570892 3.109222174
vn -0.823939383 0.5664704442 0.01533321943
v -13.35000038 13.51570797 2.109222889
vn -0.3817017674 -0.007394827437 -0.9242559671
v -13.35000038 13.01570797 2.609222412
vn -0.6289416552 -0.7771678567 -0.02103655413
v -13.35000038 13.03274536 2.479813337
vn -0.0819972083 -0.9504390359 -0.2999034524
v -13.35000038 13.08269501 2.359222174
vn -0.05541677028 -0.841974318 -0.5366639495
v -13.35000038 13.16215515 2.255668879
vn -0.03249515966 -0.6750714183 -0.737036407
v -13.35000038 13.26570797 2.176208973
vn -0.01487040706 -0.4615017772 -0.8870146275
v -13.35000038 13.38629818 2.126259804
vn -0.003782356158 -0.2162187546 -0.9763376117
v -13.35000038 13.01570797 3.109222174
vn -0.9237585068 -0.382835269 0.0103627136
v -13.35000038 13.51570797 3.609221935
vn -0.2022187859 -0.007835150696 0.9793090224
v -13.35000038 15.51570797 3.609221935
vn -0.1754078567 0.007876548916 0.9844643474
v -13.35000038 13.03274536 3.238632202
vn -0.08199720085 -0.9730566144 0.2154931426
v -13.35000038 13.08269501 3.359222651
vn -0.05541689321 -0.8857497573 0.4608430266
v -13.35000038 13.16215515 3.462775946
vn -0.03249521554 -0.7370383739 0.6750692129
v -13.35000038 13.26570797 3.542234659
vn -0.01487013325 -0.5374272466 0.8431789875
v -13.35000038 13.38629818 3.59218502
vn -0.003782390617 -0.3009155691 0.9536432624
v -13.35000038 15.64511681 3.59218502
vn -0.003782339394 0.2162198126 0.9763373733
v -13.35000038 15.76570797 3.542234659
vn -0.01487000007 0.4614978433 0.8870167136
v -13.35000038 15.86926079 3.462775946
vn -0.03249536455 0.6750687361 0.7370388508
v -13.35000038 15.94872093 3.359222651
vn -0.05541664362 0.8419752121 0.5366625786
v -13.35000038 15.99867153 3.238632202
vn -0.08199753612 0.9504387975 0.2999042273
v -10.35000038 15.99867153 3.238632202
vn -0.6916992068 0.7051020861 0.1561513543
v -10.35000038 15.94872093 3.359222651
vn -0.6593563557 0.6669586897 0.347009033
v -10.35000038 15.86926079 3.462775946
vn -0.5890207291 0.595928669 0.5458238125
v -10.35000038 15.76570797 3.542234659
vn -0.4638091326 0.4761772752 0.7470852137
v -10.35000038 15.64511681 3.59218502
vn -0.2650918365 0.2901513278 0.919531703
v -10.35000038 15.51570797 3.609221935
vn -0.006490317173 0.008000422269 0.9999469519
v -10.35000038 13.51570797 3.609221935
vn -0.01323649287 -0.007999735884 0.9998803735
v -10.35000038 13.01570797 2.609222412
vn -0.8214534521 -0.5700668097 -0.01543069538
v -10.35000038 13.03274536 2.479813337
vn -0.6570442319 -0.7360191345 -0.1629990041
v -10.35000038 13.08269501 2.359222174
vn -0.5791717172 -0.7231800556 -0.3762588799
v -10.35000038 13.16215515 2.255668879
vn -0.9985020161 -0.04034800082 -0.03695570678
v -10.35000038 13.26570797 2.176208973
vn -0.7400215864 -0.3615077734 -0.5671685934
v -10.35000038 13.38629818 2.126259804
vn -0.676338017 -0.2216526866 -0.7024506927
v -10.35000038 13.51570797 2.109222889
vn -0.4517951906 -0.007137497421 -0.892093122
v -10.35000038 13.38629818 3.59218502
vn -0.265091747 -0.2084850222 0.9414139986
v -10.35000038 13.26570797 3.542234659
vn -0.4638096988 -0.4089038968 0.7859250307
v -10.35000038 13.16215515 3.462775946
vn -0.5890225768 -0.5458226204 0.5959278941
v -10.35000038 13.08269501 3.359222651
vn -0.6593545079 -0.6339982748 0.4041012824
v -10.35000038 13.03274536 3.238632202
vn -0.6917003393 -0.6887114048 0.2173183411
v -10.35000038 13.01570797 3.109222174
vn -0.5880225897 -0.8085483909 0.02188605629
v 17.20000076 13.76570892 14.60936165
vn 0.9257733822 0.1547479928 -0.3449590504
v 15.41143799 13.76570892 14.60936165
vn -0.04693639278 0.6583359241 -0.7512595057
v 17.20000076 13.76570892 17.00936317
vn 0.7066777945 0.472500056 0.5266404748
v 15.41143799 13.76570892 17.00936317
vn -0.02860076539 0.401158154 0.9155622125
v 15.41143799 15.26570892 14.60936165
vn -0.0286005754 -0.401158154 -0.9155622125
v 17.20000076 15.26570892 14.60936165
vn 0.7066777945 -0.4725000262 -0.5266404748
v 15.41143799 15.26570892 17.00936127
vn -0.04693608359 -0.6583359838 0.7512594461
v 17.20000076 15.26570892 17.00936127
vn 0.9257733822 -0.1547479779 0.3449590504
v 15.2010107 13.62318993 17.00936317
vn -0.2661276162 0.4751312733 0.8387051821
v 15.2010107 13.62318993 14.60936165
vn -0.2246516049 0.4960899353 -0.8387052417
v 14.96145153 13.5383215 17.00936317
vn -0.138974905 0.5315289497 0.8355614543
v 14.96145153 13.53832054 14.60936165
vn -0.09315588325 0.5414410233 -0.8355618715
v 14.70823574 13.51658154 17.00936317
vn -6.032202145e-05 0.06675327569 0.9977695346
v 14.70823574 13.51658058 14.60936165
vn 0.005630645901 0.06651189178 -0.997769773
v 14.4577179 13.55937767 17.00936317
vn 0.1416627169 0.5458240509 0.8258376122
v 14.4577179 13.55937672 14.60936165
vn 0.1876681745 0.5317276716 -0.8258609772
v 14.22607803 13.66394329 17.00936317
vn 0.275655061 0.4942303598 0.824469924
v 14.22607803 13.66394329 14.60936165
vn 0.316768527 0.4689047337 -0.8244913816
v 14.0282793 13.82352543 17.00936317
vn 0.414131999 0.4325852692 0.8008524776
v 14.0282793 13.82352543 14.60936165
vn 0.4494834542 0.3956868947 -0.8008723259
v 13.87709618 14.02781677 17.00936317
vn 0.5688449144 0.350605607 0.7439698577
v 13.87709618 14.02781677 14.60936165
vn 0.5966435075 0.3008225858 -0.7439907789
v 13.78229618 14.26362133 17.00936317
vn 0.7467026711 0.2289504111 0.6245132685
v 13.78229618 14.26362133 14.60936165
vn 0.7634904385 0.1644564867 -0.6245289445
v 13.75 14.51570892 17.00936317
vn 0.09748667479 0.004163239617 0.9952281117
v 13.75 14.51570892 14.60936165
vn 0.09747865051 -0.004162902478 -0.9952288866
v 13.78229618 14.76779652 17.00936127
vn 0.7635028958 -0.1644593775 0.6245129704
v 13.78229618 14.76779556 14.60936165
vn 0.7466905117 -0.228946358 -0.6245293021
v 13.87709618 15.00360107 17.00936127
vn 0.5966639519 -0.3008324504 0.7439703941
v 13.87709618 15.00360107 14.60936165
vn 0.5688253641 -0.3505941033 -0.7439902425
v 14.0282793 15.20789242 17.00936127
vn 0.4495032132 -0.3957050443 0.8008522987
v 14.0282793 15.20789242 14.60936165
vn 0.4141136706 -0.4325653613 -0.8008726835
v 14.22607803 15.36747551 17.00936127
vn 0.3167870045 -0.4689298272 0.8244700432
v 14.22607803 15.36747456 14.60936165
vn 0.2756406963 -0.4942030013 -0.8244910836
v 14.4577179 15.47204113 17.00936127
vn 0.1876791418 -0.5317605138 0.8258373141
v 14.4577179 15.47204113 14.60936165
vn 0.1416526437 -0.5457910895 -0.825861156
v 14.70823574 15.51483631 17.00936127
vn 0.005630826112 -0.06651519984 0.9977695346
v 14.70823574 15.51483631 14.60936165
vn -6.023492097e-05 -0.06674995273 -0.9977697134
v 14.96145153 15.49309731 17.00936127
vn -0.0931551531 -0.541441083 0.8355618715
v 14.96145153 15.49309731 14.60936165
vn -0.1389756203 -0.5315288901 -0.8355613947
v 15.2010107 15.40822697 17.00936127
vn -0.2246523052 -0.4960897565 0.8387051225
v 15.2010107 15.40822697 14.60936165
vn -0.2661269903 -0.4751312733 -0.8387053609
v -15.20000076 13.76570892 17.00936317
vn -0.9257734418 0.1547479779 0.3449588716
v -13.41143799 13.76570892 17.00936317
vn 0.04693641514 0.6583360434 0.7512593865
v -15.20000076 13.76570892 14.60936165
vn -0.7066779733 0.4724998474 -0.5266404152
v -13.41143799 13.76570892 14.60936165
vn 0.02860077843 0.401158005 -0.9155622721
v -15.20000076 15.26570892 14.60936165
vn -0.9257734418 -0.154747963 -0.3449588716
v -13.41143799 15.26570892 14.60936165
vn 0.04693610594 -0.658336103 -0.7512593269
v -15.20000076 15.26570892 17.00936127
vn -0.7066779733 -0.4724998474 0.5266404748
v -13.41143799 15.26570892 17.00936127
vn 0.0286005903 -0.4011580348 0.9155622721
v -13.2010107 15.40822697 17.00936127
vn 0.2661269903 -0.4751311839 0.8387054205
v -13.2010107 15.40822697 14.60936165
vn 0.2246523201 -0.4960899055 -0.8387050033
v -12.96145153 15.49309731 17.00936127
vn 0.1389756203 -0.5315287709 0.8355614543
v -12.96145153 15.49309731 14.60936165
vn 0.0931551531 -0.5414412022 -0.8355618119
v -12.70823574 15.51483631 17.00936127
vn 6.023792594e-05 -0.06675313413 0.9977695346
v -12.70823574 15.51483631 14.60936165
vn -0.005630546715 -0.0665120557 -0.9977697134
v -12.4577179 15.47204113 17.00936127
vn -0.1416613013 -0.5458243489 0.8258376718
v -12.4577179 15.47204113 14.60936165
vn -0.1876676679 -0.5317280889 -0.8258607984
v -12.22607803 15.36747551 17.00936127
vn -0.2756557167 -0.4942298532 0.8244699836
v -12.22607803 15.36747456 14.60936165
vn -0.3167696893 -0.4689043462 -0.8244911432
v -12.0282793 15.20789242 17.00936127
vn -0.4141325355 -0.4325849712 0.8008523583
v -12.0282793 15.20789242 14.60936165
vn -0.449482739 -0.3956871331 -0.8008726239
v -11.87709618 15.00360107 17.00936127
vn -0.5688443184 -0.3506056666 0.7439702749
v -11.87709618 15.00360107 14.60936165
vn -0.5966440439 -0.300822556 -0.7439903617
v -11.78229618 14.76779652 17.00936127
vn -0.7467030883 -0.2289501429 0.6245128512
v -11.78229618 14.76779556 14.60936165
vn -0.7634899616 -0.1644566953 -0.6245294809
v -11.75 14.51570892 17.00936317
vn -0.09748655558 -0.004163089674 0.9952281117
v -11.75 14.51570892 14.60936165
vn -0.09747877717 0.00416275207 -0.9952288866
v -11.78229618 14.26362133 17.00936317
vn -0.7635033727 0.1644593477 0.624512434
v -11.78229618 14.26362133 14.60936165
vn -0.7466900945 0.2289464474 -0.624529779
v -11.87709618 14.02781677 17.00936317
vn -0.5966633558 0.3008327484 0.7439707518
v -11.87709618 14.02781677 14.60936165
vn -0.5688259602 0.3505938053 -0.7439899445
v -12.0282793 13.82352543 17.00936317
vn -0.4495039284 0.3957050443 0.8008518815
v -12.0282793 13.82352543 14.60936165
vn -0.4141131043 0.4325654209 -0.8008729815
v -12.22607803 13.66394329 17.00936317
vn -0.3167858124 0.4689304531 0.8244701028
v -12.22607803 13.66394329 14.60936165
vn -0.2756400108 0.4942032695 -0.8244912028
v -12.4577179 13.55937767 17.00936317
vn -0.1876796484 0.5317602754 0.8258373737
v -12.4577179 13.55937672 14.60936165
vn -0.1416540444 0.5457905531 -0.8258612752
v -12.70823574 13.51658154 17.00936317
vn -0.00563092716 0.06651536375 0.9977695346
v -12.70823574 13.51658058 14.60936165
vn 6.031903104e-05 0.06674981862 -0.9977697134
v -12.96145153 13.5383215 17.00936317
vn 0.09315588325 0.5414411426 0.8355617523
v -12.96145153 13.53832054 14.60936165
vn 0.138974905 0.5315288305 -0.8355615139
v -13.2010107 13.62318993 17.00936317
vn 0.2246516198 0.4960900843 0.8387051225
v -13.2010107 13.62318993 14.60936165
vn 0.266127646 0.4751311839 -0.8387052417
v 17.20000076 20.6157093 14.60936165
vn 0.4790428579 0.4700787961 -0.7413122654
v 17.20000076 20.6157093 17.00936127
vn 0.2943426073 0.288828671 0.9110106826
v 17.20000076 8.415709496 17.00936317
vn 0.5244606733 -0.2573178709 0.8116208911
v 17.20000076 8.415708542 14.6093626
vn 0.2632440031 -0.516636312 -0.81473279
v 12.25 8.716195107 17.00936317
vn 0.8905588984 -0.0007993403706 0.454867214
v 12.23978806 8.638408661 17.00936317
vn 0.7509513497 -0.2363332361 0.6166187525
v 12.25 20.31522369 17.00936127
vn 0.7149910331 0.001242365921 0.6991325617
v 12.23978806 20.39301109 17.00936127
vn 0.7509512901 0.2363333255 0.6166188121
v 12.20984459 20.46548462 17.00936127
vn 0.6820025444 0.4336169064 0.5889388323
v 12.16221237 20.52771378 17.00936127
vn 0.5744279027 0.6256963611 0.5277657509
v 12.10013008 20.57545853 17.00936127
vn 0.4187071025 0.8030192852 0.4240806997
v 12.02782631 20.60547256 17.00936127
vn 0.2420326322 0.9014196992 0.3589746058
v 11.95022297 20.6157093 17.00936127
vn 0.0003908397339 0.9995612502 0.02961683646
v 12.20984459 8.565933228 17.00936317
vn 0.6820036173 -0.4336143732 0.5889394283
v 12.16221237 8.503705025 17.00936317
vn 0.5744295716 -0.6256923676 0.5277686715
v 12.10013008 8.455958366 17.00936317
vn 0.4187086523 -0.8030186296 0.4240803719
v 12.02782631 8.425945282 17.00936317
vn 0.2420254648 -0.901425004 0.3589661121
v 11.95022297 8.415709496 17.00936317
vn 0.0005096418317 -0.9992536902 0.03862399608
v -15.20000076 20.6157093 17.00936127
vn -0.5244607329 0.2573179603 0.8116208315
v -10.25 20.31522369 17.00936127
vn -0.8308236003 0.0009834971279 0.5565350056
v -10.23978806 20.39301109 17.00936127
vn -0.7509513497 0.2363333404 0.6166186929
v -10.25 8.716195107 17.00936317
vn -0.8308236003 -0.000983413076 0.556534946
v -15.20000076 8.415709496 17.00936317
vn -0.2943426669 -0.2888286114 0.9110106826
v -10.23978806 8.638408661 17.00936317
vn -0.7509513497 -0.236333251 0.6166186929
v -10.20984459 8.565933228 17.00936317
vn -0.6820036769 -0.4336143732 0.5889393687
v -10.16221237 8.503705025 17.00936317
vn -0.5744295716 -0.6256923676 0.5277686119
v -10.10013008 8.455958366 17.00936317
vn -0.4187086821 -0.8030186296 0.4240803123
v -10.02782631 8.425945282 17.00936317
vn -0.2420254648 -0.901425004 0.3589660823
v -9.950222969 8.415709496 17.00936317
vn -0.0002758039045 -0.9991428852 0.04139299691
v -10.20984459 20.46548462 17.00936127
vn -0.6820025444 0.433616966 0.5889387727
v -10.16221237 20.52771378 17.00936127
vn -0.5744279623 0.6256963611 0.5277656317
v -10.10013008 20.57545853 17.00936127
vn -0.4187071323 0.8030192852 0.4240806401
v -10.02782631 20.60547256 17.00936127
vn -0.2420326322 0.9014196992 0.3589745164
v -9.950222969 20.6157093 17.00936127
vn -0.0003301470133 0.9987719655 0.04954297096
v -15.20000076 8.415708542 14.6093626
vn -0.4790429771 -0.470078975 -0.7413120866
v -15.20000076 20.6157093 14.60936165
vn -0.2632440627 0.5166361332 -0.8147329092
v -9.900222778 20.31571007 21.30936241
vn -0.0004627227318 0.9888889194 0.1486557573
v -9.977826118 20.30547142 21.30936241
vn -0.2586534619 0.963327527 0.07140372694
v -10.05012989 20.27545929 21.30936241
vn -0.5369749665 0.8405960798 0.07110646367
v -10.11221218 20.22771263 21.30936241
vn -0.7364664674 0.6729358435 0.06909754872
v -10.15984535 20.16548538 21.30936241
vn -0.8856819272 0.4596420228 0.06554913521
v -10.18978786 20.09300995 21.30936241
vn -0.9746671319 0.2152630538 0.06071047857
v -10.19999981 20.01522255 21.30936241
vn -0.9160552025 0.001677311957 0.4010486901
v 11.90022278 20.31571007 21.30936241
vn 0.0002190187806 0.9366132021 0.3503649831
v -7.715715408 19.24831963 21.30936241
vn -0.5559098721 0.7397165895 0.3791880012
v -8.753540039 18.32911301 21.30936241
vn -0.727342248 0.5937635303 0.34411937
v -9.541187286 17.18822098 21.30936241
vn -0.8615194559 0.4086786509 0.3012740016
v -10.03286839 15.89196873 21.30936241
vn -0.9623561502 0.1963194609 0.1879608333
v -10.19999981 14.51570988 21.30936241
vn -0.9996420741 -0.005878312979 0.02609915659
v -6.488046169 19.89240646 21.30936241
vn -0.3786768019 0.8887683749 0.2582531571
v -5.141898155 20.22392845 21.30936241
vn -0.1594135463 0.9810807109 0.1098541394
v -3.755527735 20.22361565 21.30936241
vn 0.07340345532 0.9085637927 0.4112466574
v -2.409529924 19.89148712 21.30936241
vn 0.2340797186 0.7009292841 0.6737245917
v -1.18215096 19.24684715 21.30936241
vn 0.3129904568 0.4948109686 0.810678184
v -0.1447409838 18.32717133 21.30936241
vn 0.3229886889 0.3101318777 0.8941456676
v 2.050247908 17.1613903 21.30936241
vn 0.07724659145 0.3255741 0.9423558116
v 2.702573061 16.88114548 21.30936241
vn 0.2376487702 0.4435662925 0.8641597033
v 0.642391026 17.18592453 21.30936241
vn 0.693292141 0.7174167037 0.06825920939
v 1.347916007 17.26529121 21.30936241
vn -0.02555955946 0.9851216078 0.1699474454
v 12.19999981 20.01522255 21.30936241
vn 0.6304847002 0.0002839940134 0.7762016058
v 3.261410952 16.4432373 21.30936241
vn 0.3822010159 0.4096513689 0.8283164501
v 3.689516068 15.87685299 21.30936241
vn 0.4543426633 0.2855819762 0.8438102007
v 3.958352089 15.21974468 21.30936241
vn 0.5220589638 0.1627855003 0.837230742
v 4.050000191 14.51570988 21.30936241
vn 0.08244340122 0.003577445867 0.996589303
v 12.19999981 9.016195297 21.30936241
vn 0.3703556657 -0.0003413683735 0.9288899899
v 3.958352089 13.81167412 21.30936241
vn 0.5341972709 -0.1169524118 0.8372308016
v 3.689516068 13.15456581 21.30936241
vn 0.4773722887 -0.2451529652 0.8438102603
v 3.261410952 12.5881815 21.30936241
vn 0.4162487686 -0.375005126 0.8283164501
v 2.702573061 12.15027237 21.30936241
vn 0.2751775682 -0.4213134944 0.8641598821
v 11.90022278 8.715709686 21.30936241
vn 0.0002189881779 -0.9366132021 0.3503650725
v 2.050247908 11.8700285 21.30936241
vn 0.1051577032 -0.3176591694 0.9423558116
v -0.1447409838 10.70424747 21.30936241
vn 0.3469989002 -0.2830107808 0.8941457868
v 1.347916007 11.76612663 21.30936241
vn 0.05986889079 -0.9836328626 0.1699472666
v 0.642391026 11.84549332 21.30936241
vn 0.406413883 -0.9092728496 0.08972539753
v -1.18215096 9.784572601 21.30936241
vn 0.3519605696 -0.4678937197 0.8106782436
v -2.409529924 9.139931679 21.30936241
vn 0.2899683118 -0.6797154546 0.6737249494
v -3.755527735 8.807801247 21.30936241
vn 0.1465998888 -0.8996584415 0.4112459123
v -9.900222778 8.715709686 21.30936241
vn -0.000462658063 -0.9888889194 0.1486557126
v -5.141898155 8.807489395 21.30936241
vn -0.07959413528 -0.9907556772 0.1098543406
v -6.488046169 9.139012337 21.30936241
vn -0.3056010306 -0.9164677858 0.2582532763
v -7.715715408 9.783099174 21.30936241
vn -0.494301945 -0.7822288275 0.3791881204
v -10.19999981 9.016195297 21.30936241
vn -0.9160552621 -0.001677251304 0.4010486305
v -10.18978786 8.938407898 21.30936241
vn -0.9746672511 -0.2152626067 0.06071054935
v -8.753540039 10.70230675 21.30936241
vn -0.6769700646 -0.6506099701 0.3441194594
v -9.541187286 11.84319782 21.30936241
vn -0.8256682754 -0.4769757688 0.301273942
v -10.03286839 13.13945007 21.30936241
vn -0.943339467 -0.2734618783 0.1879608184
v -10.15984535 8.865933418 21.30936241
vn -0.885682404 -0.4596411884 0.06554920971
v -10.11221218 8.803704262 21.30936241
vn -0.7364692688 -0.6729328036 0.06909759343
v -10.05012989 8.755958557 21.30936241
vn -0.5369778275 -0.8405942321 0.07110673934
v -9.977826118 8.725945473 21.30936241
vn -0.2586463094 -0.9633294344 0.07140400261
v 11.97782612 8.725945473 21.30936241
vn 0.2586463094 -0.9633294344 0.07140400261
v 12.05012989 8.755958557 21.30936241
vn 0.5369778275 -0.8405942321 0.07110673934
v 12.11221218 8.803704262 21.30936241
vn 0.7364692688 -0.6729328036 0.06909759343
v 12.15984535 8.865933418 21.30936241
vn 0.885682404 -0.4596411884 0.06554920971
v 12.18978786 8.938407898 21.30936241
vn 0.9746672511 -0.2152626067 0.06071054935
v 12.18978786 20.09300995 21.30936241
vn 0.9746671319 0.2152630538 0.06071047857
v 12.15984535 20.16548538 21.30936241
vn 0.8856819272 0.4596420228 0.06554913521
v 12.11221218 20.22771263 21.30936241
vn 0.7364664674 0.6729358435 0.06909754872
v 12.05012989 20.27545929 21.30936241
vn 0.5369749665 0.8405960798 0.07110646367
v 11.97782612 20.30547142 21.30936241
vn 0.2586534619 0.963327527 0.07140372694
v -10.05000019 20.66570854 3.60936141
vn -0.0004626501468 0.9999927878 0.00377405202
v -10.05000019 20.66570854 -0.8906379342
vn -0.0004606547591 0.999440372 -0.03344725817
v -10.12764454 20.65548706 3.60936141
vn -0.276540786 0.960989058 0.005021465942
v -10.12764645 20.65548515 -0.8906379342
vn -0.300917536 0.9536489844 -0.00151297194
v -10.19999886 20.62551689 3.60936141
vn -0.5158340931 0.8566660881 0.006192460191
v -10.19999981 20.62551498 -0.8906379342
vn -0.5374766588 0.843257606 -0.00594874192
v -10.26212978 20.57784271 3.60936141
vn -0.7199733257 0.6939670444 0.006941453554
v -10.26213169 20.57784081 -0.8906379342
vn -0.737362206 0.6753724217 -0.01300395839
v -10.30980587 20.51571083 3.60936141
vn -0.8750514984 0.4839760363 0.007217484992
v -10.30980778 20.51570702 -0.8906379342
vn -0.8868923783 0.4614426196 -0.02219526097
v -10.33977699 20.44335747 3.60936141
vn -0.9704976678 0.2410088181 0.0070017986
v -10.33977795 20.44335365 -0.8906378746
vn -0.9758142233 0.2161126733 -0.03289205953
v -10.35000038 20.36571312 3.60936141
vn -0.9999707341 0.001307901344 0.007537162863
v -10.35000038 20.3657074 -0.8906378746
vn -0.2015984505 0.0001613897475 -0.9794682264
v -10.25 20.3157177 14.60936165
vn -0.9841535091 0.0008578659617 -0.1773163527
v -10.23977757 20.39336205 14.60936165
vn -0.9174802303 0.2895116508 -0.2727874517
v -10.20980835 20.4657135 14.60936165
vn -0.8169038892 0.5206921101 -0.24808833
v -10.16213322 20.52784348 14.60936165
vn -0.6610049605 0.7217003703 -0.20547764
v -10.10000134 20.57551765 14.60936165
vn -0.4565506279 0.8775249124 -0.1466682106
v -10.02764702 20.60548592 14.60936165
vn -0.2156062722 0.9735931754 -0.07503546774
v -9.949999809 20.6157093 14.60936165
vn -0.0003128068347 0.9999957085 0.002910350682
v 12.05000019 20.66570854 3.60936141
vn 0.0006100249593 0.9999966621 0.002510407241
v 12.05000019 20.66570854 -0.8906379342
vn 0.0009103873163 0.9910495281 -0.133491531
v 11.94999981 20.6157093 14.60936165
vn 0.0002044418798 0.999992311 0.003911111038
v 12.35000038 20.3657074 -0.8906378746
vn 0.1926906407 8.382558008e-05 -0.9812595248
v 12.33977795 20.44335365 -0.8906378746
vn 0.9758142233 0.2161126733 -0.03289205953
v 12.35000038 20.36571312 3.60936141
vn 0.9999786019 0.00111785566 0.006441970356
v 12.33977699 20.44335747 3.60936141
vn 0.9704976678 0.2410088181 0.0070017986
v 12.30980778 20.51570702 -0.8906379342
vn 0.8868923783 0.4614426196 -0.02219526097
v 12.30980587 20.51571083 3.60936141
vn 0.8750514984 0.4839760363 0.007217484992
v 12.26213169 20.57784081 -0.8906379342
vn 0.737362206 0.6753724217 -0.01300395839
v 12.26212978 20.57784271 3.60936141
vn 0.7199733257 0.6939670444 0.006941453554
v 12.19999981 20.62551498 -0.8906379342
vn 0.5374766588 0.843257606 -0.00594874192
v 12.19999886 20.62551689 3.60936141
vn 0.5158340931 0.8566660881 0.006192460191
v 12.12764645 20.65548515 -0.8906379342
vn 0.300917536 0.9536489844 -0.00151297194
v 12.12764454 20.65548706 3.60936141
vn 0.276540786 0.960989058 0.005021465942
v 12.02764702 20.60548592 14.60936165
vn 0.2156062722 0.9735931754 -0.07503548265
v 12.10000134 20.57551765 14.60936165
vn 0.4565506279 0.8775249124 -0.1466682404
v 12.16213322 20.52784348 14.60936165
vn 0.6610049009 0.7217003703 -0.2054776847
v 12.20980835 20.4657135 14.60936165
vn 0.8169038892 0.5206920505 -0.2480883598
v 12.23977757 20.39336205 14.60936165
vn 0.9174802303 0.2895116508 -0.2727875113
v 12.25 20.3157177 14.60936165
vn 0.9841535091 0.0008578659617 -0.1773163676
v -10.35000038 8.665707588 -0.8906370401
vn -0.1170956641 -8.498878742e-05 -0.9931206107
v 12.35000038 8.665707588 -0.8906370401
vn 0.1865922213 -0.0001620273251 -0.9824374318
v -10.05000019 8.365708351 -0.8906369805
vn -0.0009103873163 -0.9910495281 -0.133491382
v 12.05000019 8.365708351 -0.8906369805
vn 0.0004606547591 -0.999440372 -0.03344710916
v 12.33977795 8.588062286 -0.8906370401
vn 0.9758146405 -0.2161109447 -0.03289194405
v 12.30980778 8.51570797 -0.8906369805
vn 0.886891067 -0.4614451528 -0.02219535224
v 12.26213169 8.453576088 -0.8906369805
vn 0.737362206 -0.6753724217 -0.01300383452
v 12.19999981 8.405900002 -0.8906369805
vn 0.5374810696 -0.8432548642 -0.005948777776
v 12.12764645 8.375929832 -0.8906369805
vn 0.3009101152 -0.953651309 -0.00151286216
v -10.12764645 8.375929832 -0.8906369805
vn -0.3009101152 -0.953651309 -0.00151286216
v -10.19999981 8.405900002 -0.8906369805
vn -0.5374810696 -0.8432548642 -0.005948777776
v -10.26213169 8.453576088 -0.8906369805
vn -0.737362206 -0.6753724217 -0.01300383452
v -10.30980778 8.51570797 -0.8906369805
vn -0.886891067 -0.4614451528 -0.02219535224
v -10.33977795 8.588062286 -0.8906370401
vn -0.9758146405 -0.2161109447 -0.03289194405
v 12.35000038 8.665703773 3.609362364
vn 0.9999791384 -0.0005630102823 0.006438710261
v 12.25 8.71570015 14.6093626
vn 0.9383046031 -0.001632004511 -0.3458060622
v 12.05000019 8.365708351 3.609362364
vn 0.0007860545884 -0.9999944568 0.003235048847
v 12.12764454 8.375930786 3.609362364
vn 0.2765364349 -0.9609903097 0.005021600053
v 12.19999886 8.405899048 3.609362364
vn 0.5158304572 -0.8566682935 0.006192558445
v 12.26212978 8.453574181 3.609362364
vn 0.719976604 -0.6939636469 0.006941485684
v 12.30980587 8.515705109 3.609362364
vn 0.8750498891 -0.4839788973 0.007217540871
v 12.33977699 8.588058472 3.609362364
vn 0.9704979658 -0.2410076559 0.007001828868
v 12.23977757 8.638054848 14.6093626
vn 0.9174795747 -0.2895115018 -0.2727898955
v 12.20980835 8.565702438 14.6093626
vn 0.8169038296 -0.5206921101 -0.2480883449
v 12.16213322 8.503572464 14.6093626
vn 0.6610053182 -0.7217007875 -0.2054748982
v 12.10000134 8.455900192 14.6093626
vn 0.4565427303 -0.8775292039 -0.1466669887
v 12.02764702 8.425930977 14.6093626
vn 0.2156062722 -0.9735931754 -0.07503533363
v 11.94999981 8.415708542 14.6093626
vn 0.000186600475 -0.9999936223 0.003570107743
v -10.05000019 8.365708351 3.609362364
vn -0.0003954703861 -0.9999946952 0.003226238303
v -9.949999809 8.415708542 14.6093626
vn -0.0003663594252 -0.9999940991 0.003408934455
v -10.35000038 8.665703773 3.609362364
vn -0.9999658465 -0.000720107113 0.008235303685
v -10.33977699 8.588058472 3.609362364
vn -0.9704979658 -0.2410076559 0.007001828868
v -10.30980587 8.515705109 3.609362364
vn -0.8750498891 -0.4839788973 0.007217540871
v -10.26212978 8.453574181 3.609362364
vn -0.719976604 -0.6939636469 0.006941485684
v -10.19999886 8.405899048 3.609362364
vn -0.5158304572 -0.8566682935 0.006192558445
v -10.12764454 8.375930786 3.609362364
vn -0.2765364349 -0.9609903097 0.005021600053
v -10.02764702 8.425930977 14.6093626
vn -0.2156062722 -0.9735931754 -0.07503531873
v -10.10000134 8.455900192 14.6093626
vn -0.4565427303 -0.8775292039 -0.1466669589
v -10.16213322 8.503572464 14.6093626
vn -0.6610053182 -0.7217007875 -0.2054748535
v -10.20980835 8.565702438 14.6093626
vn -0.8169038892 -0.5206921101 -0.2480882853
v -10.23977757 8.638054848 14.6093626
vn -0.9174795747 -0.2895115018 -0.2727898657
v -10.25 8.71570015 14.6093626
vn -0.9383046031 -0.001632004511 -0.3458060324
v -3.725555658 14.32159615 25.25936317
vn -0.860671699 0.2715793848 0.4306842089
v -3.725555658 14.32159615 28.25936317
vn -0.954603374 0.2114079744 0.2098548859
v -3.699999809 14.51570988 25.25936317
vn -0.8957614303 0.0393101722 0.4427935779
v -3.699999809 14.51570988 28.25936317
vn -0.9075176716 -0.03982602432 0.4181214571
v -3.725555658 14.70982361 25.25936127
vn -0.89198488 -0.1975403577 0.4066211879
v -3.725555658 14.70982361 28.25936127
vn -0.8662873507 -0.2733513415 0.4181210995
v -3.800481081 14.89070988 25.25936127
vn -0.8388742805 -0.4364520609 0.3252684772
v -3.800481081 14.89070988 28.25936127
vn -0.7660205364 -0.4882487357 0.4181216061
v -3.919669867 15.04603958 25.25936127
vn -0.7205622196 -0.6599780321 0.2126478702
v -3.919669867 15.04603958 28.25936127
vn -0.6135514975 -0.6698723435 0.4181215465
v -4.074999809 15.16522884 25.25936127
vn -0.5348259211 -0.8390961289 0.09939257801
v -4.074999809 15.16522884 28.25936127
vn -0.4192677438 -0.8058469892 0.4181210697
v -4.255886078 15.24015427 25.25936127
vn -0.3008427024 -0.95341295 0.02230210602
v -4.255886078 15.24015427 28.25936127
vn -0.1964149326 -0.8869020939 0.4181217551
v -4.449999809 15.26570988 25.25936127
vn -0.04384193197 -0.9990223646 0.005673629697
v -4.449999809 15.26570988 28.25936127
vn 0.03581699356 -0.8161594272 0.5767156482
v -4.644114017 15.24015427 25.25936127
vn 0.215902999 -0.9749003649 0.05436157435
v -4.644114017 15.24015427 28.25936127
vn 0.2733510435 -0.8662872314 0.4181215167
v -4.824999809 15.16522884 25.25936127
vn 0.4560658634 -0.8765734434 0.1536976844
v -4.824999809 15.16522884 28.25936127
vn 0.4882485271 -0.7660208941 0.4181212783
v -4.98032999 15.04603958 25.25936127
vn 0.6500902176 -0.7097662687 0.2713199854
v -4.98032999 15.04603958 28.25936127
vn 0.6698730588 -0.6135507226 0.4181214869
v -5.099518776 14.89070988 25.25936127
vn 0.7830576301 -0.4991075099 0.3710962832
v -5.099518776 14.89070988 28.25936127
vn 0.8058463931 -0.4192685783 0.4181213677
v -5.174444199 14.70982361 25.25936127
vn 0.8606715798 -0.2715796828 0.4306842387
v -5.174444199 14.70982361 28.25936127
vn 0.8869024515 -0.1964144111 0.4181213379
v -5.199999809 14.51570988 25.25936317
vn 0.8957614303 -0.03930973634 0.4427935779
v -5.199999809 14.51570988 28.25936317
vn 0.9767924547 0.04286576807 0.2098547518
v -5.174444199 14.32159615 25.25936317
vn 0.8919849396 0.1975400448 0.4066212177
v -5.174444199 14.32159615 28.25936317
vn 0.866287291 0.2733517289 0.4181209505
v -5.099518776 14.14070988 25.25936317
vn 0.8388741612 0.4364523888 0.325268358
v -5.099518776 14.14070988 28.25936317
vn 0.7660207152 0.4882484972 0.4181216061
v -4.98032999 13.98538017 25.25936317
vn 0.72056216 0.6599780917 0.2126477659
v -4.98032999 13.98538017 28.25936317
vn 0.613550961 0.6698730588 0.4181211889
v -4.824999809 13.86619091 25.25936317
vn 0.5348255038 0.839096427 0.09939236939
v -4.824999809 13.86619091 28.25936317
vn 0.4192679524 0.8058467507 0.4181212783
v -4.644114017 13.79126549 25.25936317
vn 0.3008430302 0.9534128904 0.02230199054
v -4.644114017 13.79126644 28.25936317
vn 0.1964149773 0.8869022727 0.4181213677
v -4.449999809 13.76570988 25.25936317
vn 0.04384199902 0.9990223646 0.005673487671
v -4.449999809 13.76570988 28.25936317
vn -0.03581709787 0.816159308 0.576715827
v -4.255886078 13.79126549 25.25936317
vn -0.2159033567 0.9749003053 0.05436148122
v -4.255886078 13.79126644 28.25936317
vn -0.2733509541 0.8662874699 0.4181210995
v -4.074999809 13.86619091 25.25936317
vn -0.4560655057 0.8765736222 0.1536974311
v -4.074999809 13.86619091 28.25936317
vn -0.4882487357 0.7660206556 0.4181213975
v -3.919669867 13.98538017 25.25936317
vn -0.6500906944 0.7097657919 0.2713201046
v -3.919669867 13.98538017 28.25936317
vn -0.6698730588 0.6135509014 0.4181212783
v -3.800481081 14.14070988 25.25936317
vn -0.7830575109 0.4991078079 0.371096164
v -3.800481081 14.14070988 28.25936317
vn -0.8058465123 0.4192682803 0.4181214273
v -2.791714907 14.07137394 28.25936317
vn -0.05146165565 0.01623844169 0.9985429645
v -2.791714907 14.07137394 28.30936241
vn -0.4793252349 0.1061517224 0.8711940646
v -2.733217001 14.51570988 28.25936317
vn -0.06353957206 0.002788454527 0.997975409
v -2.733217001 14.51570988 28.30936241
vn -0.3435463607 -0.01507616509 0.9390146732
v -2.791714907 14.96004581 28.25936127
vn -0.06209615618 -0.01375177689 0.997975409
v -2.791714907 14.96004581 28.30936241
vn -0.3279385269 -0.1034786701 0.9390146136
v -2.963221788 15.37410164 28.25936127
vn -0.05642106384 -0.02935486846 0.997975409
v -2.963221788 15.37410164 28.30936241
vn -0.2899822891 -0.1848299354 0.9390144348
v -3.236051083 15.72965908 28.25936127
vn -0.0469009243 -0.0429575108 0.997975409
v -3.236051083 15.72965908 28.30936241
vn -0.2322640568 -0.2535848916 0.9390144348
v -3.591607809 16.00248718 28.25936127
vn -0.03418456391 -0.05363255367 0.997975409
v -3.591607809 16.00248718 28.30936241
vn -0.1587171108 -0.3050589561 0.9390143156
v -4.005663872 16.17399406 28.25936127
vn -0.0191385895 -0.06065278128 0.997975409
v -4.005663872 16.17399406 28.30936241
vn -0.07435377687 -0.3357423544 0.9390146732
v -4.449999809 16.23249245 28.25936127
vn -0.003394130385 -0.07734277099 0.9969987869
v -4.449999809 16.23249245 28.30936241
vn 0.01147694886 -0.2615279555 0.9651276469
v -4.894336224 16.17399406 28.25936127
vn 0.01375185885 -0.0620961152 0.997975409
v -4.894336224 16.17399406 28.30936241
vn 0.1034787223 -0.3279385269 0.9390146136
v -5.308392048 16.00248718 28.25936127
vn 0.02935493179 -0.05642098561 0.997975409
v -5.308392048 16.00248718 28.30936241
vn 0.184830144 -0.2899824381 0.9390143752
v -5.663949013 15.72965908 28.25936127
vn 0.04295756295 -0.04690082371 0.997975409
v -5.663949013 15.72965908 28.30936241
vn 0.2535851598 -0.2322641313 0.9390143156
v -5.936778069 15.37410164 28.25936127
vn 0.05363265052 -0.03418449685 0.997975409
v -5.936778069 15.37410164 28.30936241
vn 0.3050590754 -0.1587169766 0.9390143156
v -6.10828495 14.96004581 28.25936127
vn 0.06065282598 -0.01913848147 0.997975409
v -6.10828495 14.96004581 28.30936241
vn 0.3357422352 -0.07435355335 0.9390147328
v -6.166782856 14.51570988 28.25936317
vn 0.05391094834 -0.002365759807 0.9985429645
v -6.166782856 14.51570988 28.30936241
vn 0.4904660881 0.02152374573 0.8711944222
v -6.10828495 14.07137394 28.25936317
vn 0.06209615991 0.01375191659 0.997975409
v -6.10828495 14.07137394 28.30936241
vn 0.3279383779 0.103478618 0.9390146732
v -5.936778069 13.65731812 28.25936317
vn 0.05642107502 0.02935499884 0.997975409
v -5.936778069 13.65731812 28.30936241
vn 0.2899826169 0.1848302633 0.9390143156
v -5.663949013 13.30176067 28.25936317
vn 0.04690090194 0.04295764491 0.997975409
v -5.663949013 13.30176067 28.30936241
vn 0.2322633415 0.2535842359 0.9390147924
v -5.308392048 13.02893162 28.25936317
vn 0.03418457881 0.05363271013 0.997975409
v -5.308392048 13.02893162 28.30936241
vn 0.1587168872 0.3050586283 0.9390144944
v -4.894336224 12.85742474 28.25936317
vn 0.01913856715 0.06065290049 0.997975409
v -4.894336224 12.85742474 28.30936241
vn 0.07435373217 0.335742861 0.9390144944
v -4.449999809 12.79892731 28.25936317
vn 0.003394123865 0.07734295726 0.9969987869
v -4.449999809 12.79892731 28.30936241
vn -0.01147692557 0.2615280449 0.9651276469
v -4.005663872 12.85742474 28.25936317
vn -0.01375185885 0.06209627166 0.997975409
v -4.005663872 12.85742474 28.30936241
vn -0.103478767 0.3279387951 0.939014554
v -3.591607809 13.02893162 28.25936317
vn -0.02935492806 0.05642111972 0.997975409
v -3.591607809 13.02893162 28.30936241
vn -0.1848299056 0.2899821401 0.9390144944
v -3.236051083 13.30176067 28.25936317
vn -0.04295758903 0.04690099508 0.997975409
v -3.236051083 13.30176067 28.30936241
vn -0.2535840571 0.2322632968 0.939014852
v -2.963221788 13.65731812 28.25936317
vn -0.05363263935 0.03418465704 0.997975409
v -2.963221788 13.65731812 28.30936241
vn -0.3050588667 0.1587171257 0.9390143752
v -2.663037062 14.0368948 28.30936241
vn 0.9521033168 -0.3004303277 0.05692846701
v -2.663037062 14.0368948 25.30936241
vn 0.7495271564 -0.1659909487 0.6408244967
v -2.599999905 14.51570988 28.30936241
vn 0.9981033206 -0.04380090535 0.04325763136
v -2.599999905 14.51570988 25.30936241
vn 0.1099499539 0.00482513383 0.9939253926
v -2.663037062 14.99452496 28.30936241
vn 0.9754303098 0.2160197049 0.04325757176
v -2.663037062 14.99452496 25.30936241
vn 0.7321051359 0.2310113162 0.6408243179
v -2.847852945 15.44071007 28.30936241
vn 0.8862833977 0.4611187875 0.04325746
v -2.847852945 15.44071007 25.30936241
vn 0.6378470063 0.4065530002 0.6541145444
v -3.141851902 15.82385731 28.30936241
vn 0.7367374897 0.6747937799 0.04325747117
v -3.141851902 15.82385731 25.30936241
vn 0.2897826135 0.3163838983 0.9032869339
v -3.525000095 16.11785698 28.30936241
vn 0.5369845629 0.8424822688 0.04325741529
v -3.525000095 16.11785698 25.30936241
vn 0.1982263476 0.3809961677 0.9030770659
v -3.971184969 16.30267334 28.30936241
vn 0.3006368876 0.9527571797 0.04325756803
v -3.971184969 16.30267334 25.30936241
vn 0.06172680482 0.2787256539 0.9583849907
v -4.449999809 16.3657093 28.30936241
vn 0.04382262751 0.9986018538 0.02956230752
v -4.449999809 16.3657093 25.30936241
vn -0.0187269859 0.4267386198 0.9041810632
v -4.928814888 16.30267334 28.30936241
vn -0.2160195261 0.9754303098 0.04325758293
v -4.928814888 16.30267334 25.30936241
vn -0.08590576798 0.2722466886 0.9583850503
v -5.375 16.11785698 28.30936241
vn -0.461119175 0.8862831593 0.04325741529
v -5.375 16.11785698 25.30936241
vn -0.2308338434 0.3621584475 0.9030819535
v -5.758148193 15.82385731 28.30936241
vn -0.6747936606 0.7367376089 0.04325742275
v -5.758148193 15.82385731 25.30936241
vn -0.3163764775 0.2897759676 0.9032916427
v -6.052146912 15.44071007 28.30936241
vn -0.8424826264 0.5369839668 0.0432574451
v -6.052146912 15.44071007 25.30936241
vn -0.3802466094 0.1978361011 0.9034785032
v -6.236962795 14.99452496 28.30936241
vn -0.9527572393 0.3006367683 0.04325752333
v -6.236962795 14.99452496 25.30936241
vn -0.4181541502 0.09260501713 0.9036434293
v -6.300000191 14.51570988 28.30936241
vn -0.9974182844 0.04377101734 0.05692855269
v -6.300000191 14.51570988 25.30936241
vn -0.7552739382 -0.03314462677 0.6545706391
v -6.236962795 14.0368948 28.30936241
vn -0.9754302502 -0.2160200179 0.04325757548
v -6.236962795 14.0368948 25.30936241
vn -0.4084346294 -0.1288790107 0.9036433697
v -6.052146912 13.59070969 28.30936241
vn -0.8862835765 -0.4611184001 0.04325753823
v -6.052146912 13.59070969 25.30936241
vn -0.3614545465 -0.2303844541 0.9034786224
v -5.758148193 13.20756149 28.30936241
vn -0.7367380261 -0.6747931838 0.04325772822
v -5.758148193 13.20756149 25.30936241
vn -0.289776057 -0.3163768351 0.9032915235
v -5.375 12.91356277 28.30936241
vn -0.53698349 -0.8424829245 0.04325753823
v -5.375 12.91356277 25.30936241
vn -0.1982212812 -0.3809871078 0.9030820131
v -4.928814888 12.72874737 28.30936241
vn -0.3006366491 -0.9527572393 0.04325769469
v -4.928814888 12.72874641 25.30936241
vn -0.06172672287 -0.278725177 0.9583851695
v -4.449999809 12.6657095 28.30936241
vn -0.04382270202 -0.9986018538 0.02956248075
v -4.449999809 12.6657095 25.30936241
vn 0.01872701943 -0.4267383814 0.9041811824
v -3.971184969 12.72874737 28.30936241
vn 0.2160197049 -0.9754303098 0.04325772077
v -3.971184969 12.72874641 25.30936241
vn 0.08590586483 -0.2722468078 0.9583850503
v -3.525000095 12.91356277 28.30936241
vn 0.4611186683 -0.8862834573 0.04325755313
v -3.525000095 12.91356277 25.30936241
vn 0.2308389693 -0.3621671796 0.9030771255
v -3.141851902 13.20756149 28.30936241
vn 0.6747932434 -0.7367379665 0.04325772449
v -3.141851902 13.20756149 25.30936241
vn 0.3163838387 -0.2897824049 0.9032869935
v -2.847852945 13.59070969 28.30936241
vn 0.8424829245 -0.5369835496 0.04325759411
v -2.847852945 13.59070969 25.30936241
vn 0.6710090041 -0.3491147459 0.6541145444
v -10.03286839 13.13945103 25.30936241
vn -0.7788723111 -0.1588888764 0.6067225337
v -10.19999981 14.51570988 25.30936241
vn -0.751499176 0.03042046539 0.6590323448
v -10.03286839 15.89196873 25.30936241
vn -0.7634812593 0.2213234901 0.6067225933
v -9.541187286 17.18822098 25.30936241
vn -0.6881636977 0.3975414634 0.6069526076
v -8.753540039 18.32911301 25.30936241
vn -0.5728673935 0.5505607128 0.6072115302
v -7.715715408 19.24831963 25.30936241
vn -0.4243229032 0.6714878678 0.6074982285
v -6.488046169 19.89240646 25.30936241
vn -0.2651023269 0.7950165272 0.5455909371
v -5.141898155 20.22393036 25.30936241
vn -0.06370504946 0.7929771543 0.6059116721
v -3.755527735 20.22361755 25.30936241
vn 0.1279450059 0.785176158 0.6059113145
v -2.409529924 19.89148712 25.30936241
vn 0.3288395405 0.7708346844 0.5455991626
v -1.18215096 19.24684715 25.30936241
vn 0.4774922431 0.6347747445 0.6075049043
v -0.1447409838 18.32717133 25.30936241
vn 0.6157163382 0.5021753907 0.6072176695
v 0.642391026 17.18592453 25.30936241
vn 0.1088166982 0.2434563041 0.9637883306
v -9.541187286 11.84319782 25.30936241
vn -0.7180442214 -0.3406181633 0.6069528461
v -8.753540039 10.70230675 25.30936241
vn -0.6154932976 -0.5024561882 0.6072114706
v -7.715715408 9.783100128 25.30936241
vn -0.4772090316 -0.6349939108 0.6074983478
v -6.488046169 9.139012337 25.30936241
vn -0.3284942508 -0.7709875703 0.545591116
v -5.141898155 8.807489395 25.30936241
vn -0.1275908649 -0.7852333188 0.6059118509
v -3.755527735 8.8078022 25.30936241
vn 0.06406264752 -0.7929484248 0.6059114933
v -2.409529924 9.139931679 25.30936241
vn 0.2654592693 -0.7948916554 0.5455993414
v -1.18215096 9.784572601 25.30936241
vn 0.4246230423 -0.6712919474 0.6075050831
v -0.1447409838 10.70424747 25.30936241
vn 0.5731121898 -0.5502991676 0.6072176099
v 0.642391026 11.84549332 25.30936241
vn 0.23787646 -0.2461539656 0.9395866394
v 1.347916007 11.76612663 25.30936241
vn -0.02593338862 -0.9995472431 0.01525865868
v 2.050247908 11.8700285 25.30936241
vn 0.2304396033 -0.9712402821 0.05991629884
v 2.702573061 12.15027237 25.30936241
vn 0.4682387412 -0.8739581704 0.1301904917
v 3.261410952 12.5881815 25.30936241
vn 0.6656374335 -0.7134435773 0.2189180404
v 3.689516068 13.15456581 25.30936241
vn 0.8032793403 -0.5049097538 0.3159247935
v 3.958352089 13.81167507 25.30936241
vn 0.8706054091 -0.2714671791 0.4103069603
v 4.050000191 14.51570988 25.30936241
vn 0.2075241506 -0.00900477916 0.9781884551
v 3.958352089 15.21974468 25.30936241
vn 0.8908477426 0.1950344443 0.4103070199
v 3.689516068 15.87685394 25.30936241
vn 0.84399575 0.4334313571 0.3159247935
v 3.261410952 16.4432373 25.30936241
vn 0.7249337435 0.6531049609 0.2189177424
v 2.702573061 16.88114548 25.30936241
vn 0.5421818495 0.830114007 0.130190447
v 2.050247908 17.1613903 25.30936241
vn 0.3137029111 0.9476289153 0.05991631374
v 1.347916007 17.26529121 25.30936241
vn 0.06074468046 0.9980366826 0.01525842305
# mm_gid 0
g mmGroup0
f 1//1 2//2 3//3 
f 3//3 2//2 4//4 
f 3//3 4//4 5//5 
f 5//5 4//4 6//6 
f 5//5 6//6 7//7 
f 7//7 6//6 8//8 
f 7//7 8//8 9//9 
f 9//9 8//8 10//10 
f 9//9 10//10 11//11 
f 11//11 10//10 12//12 
f 11//11 12//12 13//13 
f 13//13 12//12 14//14 
f 14//14 15//15 13//13 
f 13//13 15//15 16//16 
f 12//12 2//2 14//14 
f 14//14 2//2 17//17 
f 14//14 17//17 18//18 
f 18//18 17//17 19//19 
f 19//19 17//17 20//20 
f 20//20 17//17 21//21 
f 21//21 17//17 22//22 
f 22//22 17//17 23//23 
f 12//12 10//10 2//2 
f 2//2 10//10 8//8 
f 2//2 8//8 6//6 
f 6//6 4//4 2//2 
f 18//18 24//24 14//14 
f 14//14 24//24 15//15 
f 15//15 24//24 25//25 
f 15//15 25//25 26//26 
f 24//24 27//27 25//25 
f 25//25 27//27 28//28 
f 25//25 28//28 29//29 
f 29//29 30//30 25//25 
f 25//25 30//30 31//31 
f 32//32 33//33 26//26 
f 26//26 33//33 34//34 
f 26//26 34//34 35//35 
f 35//35 36//36 26//26 
f 26//26 36//36 15//15 
f 16//16 15//15 37//37 
f 37//37 15//15 36//36 
f 37//37 36//36 38//38 
f 38//38 36//36 35//35 
f 38//38 35//35 39//39 
f 39//39 35//35 34//34 
f 39//39 34//34 40//40 
f 40//40 34//34 33//33 
f 40//40 33//33 41//41 
f 41//41 33//33 32//32 
f 41//41 32//32 42//42 
f 42//42 32//32 26//26 
f 26//26 25//25 42//42 
f 42//42 25//25 43//43 
f 44//44 18//18 45//45 
f 45//45 18//18 19//19 
f 45//45 19//19 46//46 
f 46//46 19//19 20//20 
f 46//46 20//20 47//47 
f 47//47 20//20 21//21 
f 47//47 21//21 48//48 
f 48//48 21//21 22//22 
f 48//48 22//22 49//49 
f 49//49 22//22 23//23 
f 49//49 23//23 50//50 
f 50//50 23//23 17//17 
f 1//1 50//50 2//2 
f 2//2 50//50 17//17 
f 43//43 25//25 51//51 
f 51//51 25//25 31//31 
f 51//51 31//31 52//52 
f 52//52 31//31 30//30 
f 52//52 30//30 53//53 
f 53//53 30//30 29//29 
f 53//53 29//29 54//54 
f 54//54 29//29 28//28 
f 54//54 28//28 55//55 
f 55//55 28//28 27//27 
f 55//55 27//27 56//56 
f 56//56 27//27 24//24 
f 44//44 56//56 18//18 
f 18//18 56//56 24//24 
f 57//57 58//58 59//59 
f 59//59 58//58 60//60 
f 61//61 62//62 63//63 
f 63//63 62//62 64//64 
f 60//60 58//58 65//65 
f 65//65 58//58 66//66 
f 65//65 66//66 67//67 
f 67//67 66//66 68//68 
f 67//67 68//68 69//69 
f 69//69 68//68 70//70 
f 69//69 70//70 71//71 
f 71//71 70//70 72//72 
f 71//71 72//72 73//73 
f 73//73 72//72 74//74 
f 73//73 74//74 75//75 
f 75//75 74//74 76//76 
f 75//75 76//76 77//77 
f 77//77 76//76 78//78 
f 77//77 78//78 79//79 
f 79//79 78//78 80//80 
f 79//79 80//80 81//81 
f 81//81 80//80 82//82 
f 81//81 82//82 83//83 
f 83//83 82//82 84//84 
f 83//83 84//84 85//85 
f 85//85 84//84 86//86 
f 85//85 86//86 87//87 
f 87//87 86//86 88//88 
f 87//87 88//88 89//89 
f 89//89 88//88 90//90 
f 89//89 90//90 91//91 
f 91//91 90//90 92//92 
f 91//91 92//92 93//93 
f 93//93 92//92 94//94 
f 93//93 94//94 95//95 
f 95//95 94//94 96//96 
f 95//95 96//96 97//97 
f 97//97 96//96 98//98 
f 97//97 98//98 63//63 
f 63//63 98//98 61//61 
f 99//99 100//100 101//101 
f 101//101 100//100 102//102 
f 103//103 104//104 105//105 
f 105//105 104//104 106//106 
f 106//106 104//104 107//107 
f 107//107 104//104 108//108 
f 107//107 108//108 109//109 
f 109//109 108//108 110//110 
f 109//109 110//110 111//111 
f 111//111 110//110 112//112 
f 111//111 112//112 113//113 
f 113//113 112//112 114//114 
f 113//113 114//114 115//115 
f 115//115 114//114 116//116 
f 115//115 116//116 117//117 
f 117//117 116//116 118//118 
f 117//117 118//118 119//119 
f 119//119 118//118 120//120 
f 119//119 120//120 121//121 
f 121//121 120//120 122//122 
f 121//121 122//122 123//123 
f 123//123 122//122 124//124 
f 123//123 124//124 125//125 
f 125//125 124//124 126//126 
f 125//125 126//126 127//127 
f 127//127 126//126 128//128 
f 127//127 128//128 129//129 
f 129//129 128//128 130//130 
f 129//129 130//130 131//131 
f 131//131 130//130 132//132 
f 131//131 132//132 133//133 
f 133//133 132//132 134//134 
f 133//133 134//134 135//135 
f 135//135 134//134 136//136 
f 135//135 136//136 137//137 
f 137//137 136//136 138//138 
f 137//137 138//138 139//139 
f 139//139 138//138 140//140 
f 139//139 140//140 100//100 
f 100//100 140//140 102//102 
f 62//62 141//141 64//64 
f 64//64 141//141 142//142 
f 59//59 143//143 57//57 
f 57//57 143//143 144//144 
f 59//59 60//60 143//143 
f 143//143 60//60 65//65 
f 143//143 65//65 67//67 
f 67//67 69//69 143//143 
f 143//143 69//69 145//145 
f 143//143 145//145 146//146 
f 69//69 71//71 145//145 
f 145//145 71//71 73//73 
f 145//145 73//73 75//75 
f 75//75 77//77 145//145 
f 145//145 77//77 79//79 
f 145//145 79//79 81//81 
f 145//145 81//81 147//147 
f 147//147 81//81 83//83 
f 147//147 83//83 85//85 
f 85//85 87//87 147//147 
f 147//147 87//87 89//89 
f 147//147 89//89 91//91 
f 91//91 93//93 147//147 
f 147//147 93//93 142//142 
f 147//147 142//142 148//148 
f 148//148 142//142 149//149 
f 149//149 142//142 150//150 
f 150//150 142//142 151//151 
f 151//151 142//142 152//152 
f 152//152 142//142 153//153 
f 93//93 95//95 142//142 
f 142//142 95//95 97//97 
f 142//142 97//97 63//63 
f 63//63 64//64 142//142 
f 146//146 154//154 143//143 
f 143//143 154//154 155//155 
f 143//143 155//155 156//156 
f 156//156 157//157 143//143 
f 143//143 157//157 158//158 
f 105//105 106//106 159//159 
f 159//159 106//106 107//107 
f 159//159 107//107 109//109 
f 109//109 111//111 159//159 
f 159//159 111//111 160//160 
f 159//159 160//160 161//161 
f 111//111 113//113 160//160 
f 160//160 113//113 115//115 
f 160//160 115//115 117//117 
f 117//117 119//119 160//160 
f 160//160 119//119 121//121 
f 160//160 121//121 123//123 
f 160//160 123//123 162//162 
f 162//162 123//123 125//125 
f 162//162 125//125 127//127 
f 127//127 129//129 162//162 
f 162//162 129//129 131//131 
f 162//162 131//131 133//133 
f 133//133 135//135 162//162 
f 162//162 135//135 163//163 
f 162//162 163//163 164//164 
f 164//164 163//163 165//165 
f 165//165 163//163 166//166 
f 166//166 163//163 167//167 
f 167//167 163//163 168//168 
f 168//168 163//163 169//169 
f 135//135 137//137 163//163 
f 163//163 137//137 139//139 
f 163//163 139//139 100//100 
f 100//100 99//99 163//163 
f 161//161 170//170 159//159 
f 159//159 170//170 171//171 
f 159//159 171//171 172//172 
f 172//172 173//173 159//159 
f 159//159 173//173 174//174 
f 101//101 175//175 99//99 
f 99//99 175//175 163//163 
f 105//105 159//159 103//103 
f 103//103 159//159 176//176 
f 177//177 174//174 178//178 
f 178//178 174//174 173//173 
f 178//178 173//173 172//172 
f 178//178 172//172 179//179 
f 179//179 172//172 171//171 
f 179//179 171//171 180//180 
f 180//180 171//171 170//170 
f 180//180 170//170 181//181 
f 181//181 170//170 161//161 
f 181//181 161//161 182//182 
f 182//182 161//161 160//160 
f 182//182 160//160 183//183 
f 177//177 184//184 174//174 
f 174//174 184//184 153//153 
f 178//178 179//179 177//177 
f 177//177 179//179 180//180 
f 177//177 180//180 181//181 
f 181//181 182//182 177//177 
f 177//177 182//182 183//183 
f 177//177 183//183 185//185 
f 185//185 183//183 186//186 
f 186//186 183//183 187//187 
f 187//187 183//183 188//188 
f 188//188 183//183 189//189 
f 185//185 190//190 177//177 
f 177//177 190//190 191//191 
f 177//177 191//191 192//192 
f 177//177 192//192 184//184 
f 184//184 192//192 193//193 
f 184//184 193//193 194//194 
f 194//194 195//195 184//184 
f 184//184 195//195 196//196 
f 184//184 196//196 197//197 
f 198//198 199//199 195//195 
f 195//195 199//199 196//196 
f 184//184 197//197 200//200 
f 200//200 197//197 201//201 
f 200//200 201//201 202//202 
f 202//202 203//203 200//200 
f 200//200 203//203 204//204 
f 200//200 204//204 205//205 
f 205//205 204//204 206//206 
f 205//205 206//206 207//207 
f 207//207 208//208 205//205 
f 205//205 208//208 209//209 
f 205//205 209//209 210//210 
f 210//210 209//209 211//211 
f 210//210 211//211 212//212 
f 212//212 211//211 213//213 
f 212//212 213//213 214//214 
f 212//212 215//215 210//210 
f 210//210 215//215 216//216 
f 210//210 216//216 217//217 
f 210//210 217//217 218//218 
f 218//218 217//217 219//219 
f 218//218 219//219 220//220 
f 220//220 221//221 218//218 
f 218//218 221//221 222//222 
f 218//218 222//222 223//223 
f 221//221 224//224 222//222 
f 222//222 224//224 225//225 
f 222//222 225//225 226//226 
f 226//226 189//189 222//222 
f 223//223 227//227 218//218 
f 218//218 227//227 228//228 
f 218//218 228//228 229//229 
f 229//229 230//230 218//218 
f 231//231 232//232 210//210 
f 210//210 232//232 233//233 
f 210//210 233//233 234//234 
f 234//234 235//235 210//210 
f 210//210 235//235 205//205 
f 200//200 236//236 184//184 
f 184//184 236//236 237//237 
f 184//184 237//237 238//238 
f 238//238 239//239 184//184 
f 184//184 239//239 240//240 
f 241//241 242//242 243//243 
f 243//243 242//242 244//244 
f 243//243 244//244 245//245 
f 245//245 244//244 246//246 
f 245//245 246//246 247//247 
f 247//247 246//246 248//248 
f 247//247 248//248 249//249 
f 249//249 248//248 250//250 
f 249//249 250//250 251//251 
f 251//251 250//250 252//252 
f 251//251 252//252 253//253 
f 253//253 252//252 254//254 
f 253//253 255//255 251//251 
f 251//251 255//255 256//256 
f 251//251 256//256 249//249 
f 249//249 256//256 257//257 
f 249//249 257//257 247//247 
f 247//247 257//257 258//258 
f 247//247 258//258 245//245 
f 245//245 258//258 259//259 
f 245//245 259//259 243//243 
f 243//243 259//259 260//260 
f 243//243 260//260 241//241 
f 241//241 260//260 261//261 
f 241//241 262//262 242//242 
f 242//242 262//262 263//263 
f 261//261 264//264 241//241 
f 241//241 264//264 262//262 
f 184//184 240//240 153//153 
f 153//153 240//240 152//152 
f 152//152 240//240 151//151 
f 151//151 240//240 239//239 
f 151//151 239//239 150//150 
f 150//150 239//239 238//238 
f 150//150 238//238 149//149 
f 149//149 238//238 237//237 
f 149//149 237//237 148//148 
f 148//148 237//237 236//236 
f 148//148 236//236 147//147 
f 147//147 236//236 200//200 
f 147//147 200//200 145//145 
f 145//145 200//200 205//205 
f 265//265 266//266 267//267 
f 267//267 266//266 268//268 
f 268//268 266//266 269//269 
f 268//268 269//269 270//270 
f 270//270 269//269 271//271 
f 270//270 271//271 272//272 
f 272//272 271//271 273//273 
f 272//272 273//273 274//274 
f 274//274 273//273 275//275 
f 274//274 275//275 276//276 
f 276//276 275//275 263//263 
f 276//276 263//263 262//262 
f 264//264 277//277 262//262 
f 262//262 277//277 276//276 
f 276//276 277//277 278//278 
f 276//276 278//278 274//274 
f 274//274 278//278 279//279 
f 274//274 279//279 272//272 
f 272//272 279//279 280//280 
f 272//272 280//280 270//270 
f 270//270 280//280 281//281 
f 270//270 281//281 268//268 
f 268//268 281//281 282//282 
f 268//268 282//282 267//267 
f 252//252 242//242 254//254 
f 254//254 242//242 263//263 
f 254//254 263//263 265//265 
f 265//265 263//263 266//266 
f 266//266 263//263 269//269 
f 269//269 263//263 271//271 
f 271//271 263//263 273//273 
f 273//273 263//263 275//275 
f 252//252 250//250 242//242 
f 242//242 250//250 248//248 
f 242//242 248//248 246//246 
f 246//246 244//244 242//242 
f 254//254 265//265 283//283 
f 283//283 265//265 284//284 
f 283//283 284//284 285//285 
f 285//285 284//284 286//286 
f 286//286 284//284 287//287 
f 286//286 287//287 288//288 
f 288//288 289//289 286//286 
f 286//286 289//289 290//290 
f 286//286 290//290 291//291 
f 292//292 293//293 285//285 
f 285//285 293//293 294//294 
f 285//285 294//294 295//295 
f 295//295 296//296 285//285 
f 285//285 296//296 283//283 
f 267//267 297//297 265//265 
f 265//265 297//297 284//284 
f 267//267 282//282 297//297 
f 297//297 282//282 298//298 
f 210//210 158//158 231//231 
f 231//231 158//158 157//157 
f 231//231 157//157 156//156 
f 231//231 156//156 232//232 
f 232//232 156//156 155//155 
f 232//232 155//155 233//233 
f 233//233 155//155 154//154 
f 233//233 154//154 234//234 
f 234//234 154//154 146//146 
f 234//234 146//146 235//235 
f 235//235 146//146 145//145 
f 235//235 145//145 205//205 
f 158//158 210//210 169//169 
f 169//169 210//210 218//218 
f 218//218 230//230 169//169 
f 169//169 230//230 168//168 
f 168//168 230//230 167//167 
f 167//167 230//230 229//229 
f 167//167 229//229 166//166 
f 166//166 229//229 228//228 
f 166//166 228//228 165//165 
f 165//165 228//228 227//227 
f 165//165 227//227 164//164 
f 164//164 227//227 223//223 
f 164//164 223//223 162//162 
f 162//162 223//223 222//222 
f 183//183 160//160 189//189 
f 189//189 160//160 162//162 
f 189//189 162//162 222//222 
f 299//299 286//286 300//300 
f 300//300 286//286 291//291 
f 300//300 291//291 301//301 
f 301//301 291//291 290//290 
f 301//301 290//290 302//302 
f 302//302 290//290 289//289 
f 302//302 289//289 303//303 
f 303//303 289//289 288//288 
f 303//303 288//288 304//304 
f 304//304 288//288 287//287 
f 304//304 287//287 297//297 
f 297//297 287//287 284//284 
f 297//297 298//298 304//304 
f 304//304 298//298 305//305 
f 304//304 305//305 303//303 
f 303//303 305//305 306//306 
f 303//303 306//306 302//302 
f 302//302 306//306 307//307 
f 302//302 307//307 301//301 
f 301//301 307//307 308//308 
f 301//301 308//308 300//300 
f 300//300 308//308 309//309 
f 300//300 309//309 299//299 
f 299//299 309//309 310//310 
f 299//299 311//311 286//286 
f 286//286 311//311 285//285 
f 299//299 310//310 311//311 
f 311//311 310//310 312//312 
f 283//283 296//296 313//313 
f 313//313 296//296 314//314 
f 314//314 296//296 295//295 
f 314//314 295//295 315//315 
f 315//315 295//295 294//294 
f 315//315 294//294 316//316 
f 316//316 294//294 293//293 
f 316//316 293//293 317//317 
f 317//317 293//293 292//292 
f 317//317 292//292 318//318 
f 318//318 292//292 285//285 
f 318//318 285//285 311//311 
f 312//312 319//319 311//311 
f 311//311 319//319 318//318 
f 318//318 319//319 320//320 
f 318//318 320//320 317//317 
f 317//317 320//320 321//321 
f 317//317 321//321 316//316 
f 316//316 321//321 322//322 
f 316//316 322//322 315//315 
f 315//315 322//322 323//323 
f 315//315 323//323 314//314 
f 314//314 323//323 324//324 
f 314//314 324//324 313//313 
f 254//254 7//7 253//253 
f 253//253 7//7 9//9 
f 253//253 9//9 11//11 
f 283//283 1//1 254//254 
f 254//254 1//1 3//3 
f 254//254 3//3 5//5 
f 313//313 47//47 283//283 
f 283//283 47//47 48//48 
f 283//283 48//48 49//49 
f 253//253 43//43 313//313 
f 313//313 43//43 51//51 
f 313//313 51//51 52//52 
f 41//41 42//42 253//253 
f 253//253 42//42 43//43 
f 52//52 53//53 313//313 
f 313//313 53//53 54//54 
f 313//313 54//54 55//55 
f 55//55 56//56 313//313 
f 313//313 56//56 44//44 
f 313//313 44//44 45//45 
f 45//45 46//46 313//313 
f 313//313 46//46 47//47 
f 49//49 50//50 283//283 
f 283//283 50//50 1//1 
f 5//5 7//7 254//254 
f 11//11 13//13 253//253 
f 253//253 13//13 16//16 
f 253//253 16//16 37//37 
f 37//37 38//38 253//253 
f 253//253 38//38 39//39 
f 253//253 39//39 40//40 
f 40//40 41//41 253//253 
f 253//253 313//313 255//255 
f 255//255 313//313 324//324 
f 325//325 326//326 327//327 
f 327//327 326//326 328//328 
f 327//327 328//328 329//329 
f 329//329 328//328 330//330 
f 329//329 330//330 331//331 
f 331//331 330//330 332//332 
f 331//331 332//332 333//333 
f 333//333 332//332 334//334 
f 333//333 334//334 335//335 
f 335//335 334//334 336//336 
f 335//335 336//336 337//337 
f 337//337 336//336 338//338 
f 337//337 338//338 339//339 
f 339//339 338//338 340//340 
f 339//339 340//340 341//341 
f 341//341 340//340 342//342 
f 341//341 342//342 343//343 
f 343//343 342//342 344//344 
f 343//343 344//344 345//345 
f 345//345 344//344 346//346 
f 345//345 346//346 347//347 
f 347//347 346//346 348//348 
f 347//347 348//348 349//349 
f 349//349 348//348 350//350 
f 349//349 350//350 351//351 
f 351//351 350//350 352//352 
f 351//351 352//352 353//353 
f 353//353 352//352 354//354 
f 353//353 354//354 355//355 
f 355//355 354//354 356//356 
f 355//355 356//356 357//357 
f 357//357 356//356 358//358 
f 357//357 358//358 359//359 
f 359//359 358//358 360//360 
f 359//359 360//360 361//361 
f 361//361 360//360 362//362 
f 361//361 362//362 363//363 
f 363//363 362//362 364//364 
f 363//363 364//364 365//365 
f 365//365 364//364 366//366 
f 365//365 366//366 367//367 
f 367//367 366//366 368//368 
f 367//367 368//368 369//369 
f 369//369 368//368 370//370 
f 369//369 370//370 371//371 
f 371//371 370//370 372//372 
f 371//371 372//372 325//325 
f 325//325 372//372 326//326 
f 329//329 349//349 327//327 
f 327//327 349//349 351//351 
f 327//327 351//351 325//325 
f 325//325 351//351 353//353 
f 325//325 353//353 371//371 
f 371//371 353//353 355//355 
f 371//371 355//355 369//369 
f 369//369 355//355 357//357 
f 369//369 357//357 367//367 
f 367//367 357//357 359//359 
f 367//367 359//359 365//365 
f 365//365 359//359 361//361 
f 365//365 361//361 363//363 
f 349//349 329//329 347//347 
f 347//347 329//329 331//331 
f 347//347 331//331 345//345 
f 345//345 331//331 333//333 
f 345//345 333//333 343//343 
f 343//343 333//333 335//335 
f 343//343 335//335 341//341 
f 341//341 335//335 337//337 
f 341//341 337//337 339//339 
f 373//373 374//374 375//375 
f 375//375 374//374 376//376 
f 375//375 376//376 377//377 
f 377//377 376//376 378//378 
f 377//377 378//378 379//379 
f 379//379 378//378 380//380 
f 379//379 380//380 381//381 
f 381//381 380//380 382//382 
f 381//381 382//382 383//383 
f 383//383 382//382 384//384 
f 383//383 384//384 385//385 
f 385//385 384//384 386//386 
f 385//385 386//386 387//387 
f 387//387 386//386 388//388 
f 387//387 388//388 389//389 
f 389//389 388//388 390//390 
f 389//389 390//390 391//391 
f 391//391 390//390 392//392 
f 391//391 392//392 393//393 
f 393//393 392//392 394//394 
f 393//393 394//394 395//395 
f 395//395 394//394 396//396 
f 395//395 396//396 397//397 
f 397//397 396//396 398//398 
f 397//397 398//398 399//399 
f 399//399 398//398 400//400 
f 399//399 400//400 401//401 
f 401//401 400//400 402//402 
f 401//401 402//402 403//403 
f 403//403 402//402 404//404 
f 403//403 404//404 405//405 
f 405//405 404//404 406//406 
f 405//405 406//406 407//407 
f 407//407 406//406 408//408 
f 407//407 408//408 409//409 
f 409//409 408//408 410//410 
f 409//409 410//410 411//411 
f 411//411 410//410 412//412 
f 411//411 412//412 413//413 
f 413//413 412//412 414//414 
f 413//413 414//414 415//415 
f 415//415 414//414 416//416 
f 415//415 416//416 417//417 
f 417//417 416//416 418//418 
f 417//417 418//418 419//419 
f 419//419 418//418 420//420 
f 419//419 420//420 373//373 
f 373//373 420//420 374//374 
f 377//377 330//330 375//375 
f 375//375 330//330 328//328 
f 375//375 328//328 373//373 
f 373//373 328//328 326//326 
f 373//373 326//326 372//372 
f 330//330 377//377 332//332 
f 332//332 377//377 379//379 
f 332//332 379//379 334//334 
f 334//334 379//379 381//381 
f 334//334 381//381 336//336 
f 336//336 381//381 383//383 
f 336//336 383//383 338//338 
f 338//338 383//383 385//385 
f 338//338 385//385 340//340 
f 340//340 385//385 387//387 
f 340//340 387//387 389//389 
f 340//340 389//389 342//342 
f 342//342 389//389 391//391 
f 342//342 391//391 344//344 
f 344//344 391//391 393//393 
f 344//344 393//393 346//346 
f 346//346 393//393 395//395 
f 346//346 395//395 348//348 
f 348//348 395//395 397//397 
f 348//348 397//397 350//350 
f 350//350 397//397 399//399 
f 350//350 399//399 352//352 
f 352//352 399//399 354//354 
f 354//354 399//399 401//401 
f 354//354 401//401 356//356 
f 356//356 401//401 403//403 
f 356//356 403//403 358//358 
f 358//358 403//403 405//405 
f 358//358 405//405 360//360 
f 360//360 405//405 407//407 
f 360//360 407//407 362//362 
f 362//362 407//407 409//409 
f 362//362 409//409 364//364 
f 364//364 409//409 411//411 
f 364//364 411//411 413//413 
f 364//364 413//413 366//366 
f 366//366 413//413 415//415 
f 366//366 415//415 368//368 
f 368//368 415//415 417//417 
f 368//368 417//417 370//370 
f 370//370 417//417 419//419 
f 370//370 419//419 372//372 
f 372//372 419//419 373//373 
f 421//421 422//422 423//423 
f 423//423 422//422 424//424 
f 423//423 424//424 425//425 
f 425//425 424//424 426//426 
f 425//425 426//426 427//427 
f 427//427 426//426 428//428 
f 427//427 428//428 429//429 
f 429//429 428//428 430//430 
f 429//429 430//430 431//431 
f 431//431 430//430 432//432 
f 431//431 432//432 433//433 
f 433//433 432//432 434//434 
f 433//433 434//434 435//435 
f 435//435 434//434 436//436 
f 435//435 436//436 437//437 
f 437//437 436//436 438//438 
f 437//437 438//438 439//439 
f 439//439 438//438 440//440 
f 439//439 440//440 441//441 
f 441//441 440//440 442//442 
f 441//441 442//442 443//443 
f 443//443 442//442 444//444 
f 443//443 444//444 445//445 
f 445//445 444//444 446//446 
f 445//445 446//446 447//447 
f 447//447 446//446 448//448 
f 447//447 448//448 449//449 
f 449//449 448//448 450//450 
f 449//449 450//450 451//451 
f 451//451 450//450 452//452 
f 451//451 452//452 453//453 
f 453//453 452//452 454//454 
f 453//453 454//454 455//455 
f 455//455 454//454 456//456 
f 455//455 456//456 457//457 
f 457//457 456//456 458//458 
f 457//457 458//458 459//459 
f 459//459 458//458 460//460 
f 459//459 460//460 461//461 
f 461//461 460//460 462//462 
f 461//461 462//462 463//463 
f 463//463 462//462 464//464 
f 463//463 464//464 465//465 
f 465//465 464//464 466//466 
f 465//465 466//466 467//467 
f 467//467 466//466 468//468 
f 467//467 468//468 421//421 
f 421//421 468//468 422//422 
f 425//425 378//378 423//423 
f 423//423 378//378 376//376 
f 423//423 376//376 421//421 
f 421//421 376//376 374//374 
f 421//421 374//374 420//420 
f 378//378 425//425 380//380 
f 380//380 425//425 427//427 
f 380//380 427//427 382//382 
f 382//382 427//427 429//429 
f 382//382 429//429 384//384 
f 384//384 429//429 431//431 
f 384//384 431//431 386//386 
f 386//386 431//431 433//433 
f 386//386 433//433 388//388 
f 388//388 433//433 435//435 
f 388//388 435//435 437//437 
f 388//388 437//437 390//390 
f 390//390 437//437 439//439 
f 390//390 439//439 392//392 
f 392//392 439//439 441//441 
f 392//392 441//441 394//394 
f 394//394 441//441 443//443 
f 394//394 443//443 396//396 
f 396//396 443//443 445//445 
f 396//396 445//445 398//398 
f 398//398 445//445 447//447 
f 398//398 447//447 400//400 
f 400//400 447//447 402//402 
f 402//402 447//447 449//449 
f 402//402 449//449 404//404 
f 404//404 449//449 451//451 
f 404//404 451//451 406//406 
f 406//406 451//451 453//453 
f 406//406 453//453 408//408 
f 408//408 453//453 455//455 
f 408//408 455//455 410//410 
f 410//410 455//455 457//457 
f 410//410 457//457 412//412 
f 412//412 457//457 459//459 
f 412//412 459//459 461//461 
f 412//412 461//461 414//414 
f 414//414 461//461 463//463 
f 414//414 463//463 416//416 
f 416//416 463//463 465//465 
f 416//416 465//465 418//418 
f 418//418 465//465 467//467 
f 418//418 467//467 420//420 
f 420//420 467//467 421//421 
f 226//226 469//469 189//189 
f 189//189 469//469 470//470 
f 189//189 470//470 188//188 
f 188//188 470//470 471//471 
f 188//188 471//471 187//187 
f 187//187 471//471 472//472 
f 187//187 472//472 186//186 
f 186//186 472//472 473//473 
f 186//186 473//473 185//185 
f 185//185 473//473 474//474 
f 185//185 474//474 190//190 
f 190//190 474//474 475//475 
f 190//190 475//475 191//191 
f 191//191 475//475 476//476 
f 191//191 476//476 192//192 
f 192//192 476//476 477//477 
f 192//192 477//477 193//193 
f 193//193 477//477 478//478 
f 193//193 478//478 194//194 
f 194//194 478//478 479//479 
f 194//194 479//479 195//195 
f 195//195 479//479 480//480 
f 195//195 480//480 198//198 
f 198//198 480//480 481//481 
f 469//469 226//226 482//482 
f 482//482 226//226 225//225 
f 482//482 225//225 483//483 
f 483//483 225//225 224//224 
f 483//483 224//224 484//484 
f 484//484 224//224 221//221 
f 484//484 221//221 485//485 
f 485//485 221//221 220//220 
f 485//485 220//220 486//486 
f 486//486 220//220 219//219 
f 486//486 219//219 487//487 
f 487//487 219//219 217//217 
f 487//487 217//217 488//488 
f 488//488 217//217 216//216 
f 488//488 216//216 489//489 
f 489//489 216//216 215//215 
f 489//489 215//215 490//490 
f 490//490 215//215 212//212 
f 490//490 212//212 491//491 
f 491//491 212//212 214//214 
f 491//491 214//214 492//492 
f 492//492 214//214 213//213 
f 492//492 213//213 493//493 
f 493//493 213//213 211//211 
f 493//493 211//211 494//494 
f 494//494 211//211 209//209 
f 494//494 209//209 495//495 
f 495//495 209//209 208//208 
f 495//495 208//208 496//496 
f 496//496 208//208 207//207 
f 496//496 207//207 497//497 
f 497//497 207//207 206//206 
f 497//497 206//206 498//498 
f 498//498 206//206 204//204 
f 498//498 204//204 499//499 
f 499//499 204//204 203//203 
f 499//499 203//203 500//500 
f 500//500 203//203 202//202 
f 500//500 202//202 501//501 
f 501//501 202//202 201//201 
f 501//501 201//201 502//502 
f 502//502 201//201 197//197 
f 502//502 197//197 503//503 
f 503//503 197//197 196//196 
f 503//503 196//196 504//504 
f 504//504 196//196 199//199 
f 504//504 199//199 481//481 
f 481//481 199//199 198//198 
f 492//492 493//493 491//491 
f 491//491 493//493 494//494 
f 491//491 494//494 495//495 
f 495//495 496//496 491//491 
f 491//491 496//496 497//497 
f 491//491 497//497 498//498 
f 499//499 481//481 498//498 
f 498//498 481//481 424//424 
f 498//498 424//424 491//491 
f 491//491 424//424 422//422 
f 491//491 422//422 468//468 
f 499//499 500//500 481//481 
f 481//481 500//500 501//501 
f 481//481 501//501 502//502 
f 502//502 503//503 481//481 
f 481//481 503//503 504//504 
f 480//480 430//430 481//481 
f 481//481 430//430 428//428 
f 481//481 428//428 426//426 
f 430//430 480//480 432//432 
f 432//432 480//480 479//479 
f 432//432 479//479 434//434 
f 434//434 479//479 478//478 
f 434//434 478//478 477//477 
f 434//434 477//477 436//436 
f 436//436 477//477 476//476 
f 436//436 476//476 438//438 
f 438//438 476//476 475//475 
f 438//438 475//475 474//474 
f 438//438 474//474 440//440 
f 440//440 474//474 473//473 
f 440//440 473//473 442//442 
f 442//442 473//473 472//472 
f 442//442 472//472 444//444 
f 444//444 472//472 471//471 
f 444//444 471//471 446//446 
f 446//446 471//471 470//470 
f 446//446 470//470 448//448 
f 448//448 470//470 450//450 
f 450//450 470//470 469//469 
f 450//450 469//469 452//452 
f 452//452 469//469 482//482 
f 452//452 482//482 454//454 
f 454//454 482//482 483//483 
f 454//454 483//483 456//456 
f 456//456 483//483 484//484 
f 456//456 484//484 458//458 
f 458//458 484//484 485//485 
f 458//458 485//485 486//486 
f 458//458 486//486 460//460 
f 460//460 486//486 487//487 
f 460//460 487//487 462//462 
f 462//462 487//487 488//488 
f 462//462 488//488 489//489 
f 462//462 489//489 464//464 
f 464//464 489//489 490//490 
f 464//464 490//490 466//466 
f 466//466 490//490 491//491 
f 466//466 491//491 468//468 
f 426//426 424//424 481//481 
f 103//103 176//176 104//104 
f 104//104 176//176 108//108 
f 108//108 176//176 110//110 
f 110//110 176//176 112//112 
f 112//112 176//176 255//255 
f 112//112 255//255 114//114 
f 114//114 255//255 116//116 
f 116//116 255//255 118//118 
f 118//118 255//255 120//120 
f 120//120 255//255 122//122 
f 122//122 255//255 124//124 
f 124//124 255//255 324//324 
f 124//124 324//324 126//126 
f 126//126 324//324 128//128 
f 128//128 324//324 130//130 
f 130//130 324//324 132//132 
f 132//132 324//324 134//134 
f 134//134 324//324 136//136 
f 136//136 324//324 175//175 
f 136//136 175//175 138//138 
f 138//138 175//175 140//140 
f 140//140 175//175 102//102 
f 102//102 175//175 101//101 
f 261//261 260//260 176//176 
f 176//176 260//260 259//259 
f 176//176 259//259 258//258 
f 258//258 257//257 176//176 
f 176//176 257//257 256//256 
f 176//176 256//256 255//255 
f 324//324 323//323 175//175 
f 175//175 323//323 322//322 
f 175//175 322//322 321//321 
f 321//321 320//320 175//175 
f 175//175 320//320 319//319 
f 175//175 319//319 312//312 
f 142//142 141//141 153//153 
f 153//153 141//141 264//264 
f 153//153 264//264 261//261 
f 153//153 261//261 174//174 
f 174//174 261//261 176//176 
f 174//174 176//176 159//159 
f 163//163 175//175 169//169 
f 169//169 175//175 312//312 
f 169//169 312//312 310//310 
f 169//169 310//310 158//158 
f 158//158 310//310 144//144 
f 158//158 144//144 143//143 
f 57//57 144//144 58//58 
f 58//58 144//144 66//66 
f 66//66 144//144 68//68 
f 68//68 144//144 70//70 
f 70//70 144//144 298//298 
f 70//70 298//298 72//72 
f 72//72 298//298 74//74 
f 74//74 298//298 76//76 
f 76//76 298//298 78//78 
f 78//78 298//298 80//80 
f 80//80 298//298 82//82 
f 82//82 298//298 282//282 
f 82//82 282//282 84//84 
f 84//84 282//282 86//86 
f 86//86 282//282 88//88 
f 88//88 282//282 90//90 
f 90//90 282//282 92//92 
f 92//92 282//282 94//94 
f 94//94 282//282 141//141 
f 94//94 141//141 96//96 
f 96//96 141//141 98//98 
f 98//98 141//141 61//61 
f 61//61 141//141 62//62 
f 310//310 309//309 144//144 
f 144//144 309//309 308//308 
f 144//144 308//308 307//307 
f 307//307 306//306 144//144 
f 144//144 306//306 305//305 
f 144//144 305//305 298//298 
f 282//282 281//281 141//141 
f 141//141 281//281 280//280 
f 141//141 280//280 279//279 
f 279//279 278//278 141//141 
f 141//141 278//278 277//277 
f 141//141 277//277 264//264 
